<?xml version="1.0" ?><!DOCTYPE svg  PUBLIC '-//W3C//DTD SVG 1.1//EN'  'http://www.w3.org/Graphics/SVG/1.1/DTD/svg11.dtd'><svg height="8.063mm" style="shape-rendering:geometricPrecision; text-rendering:geometricPrecision; image-rendering:optimizeQuality; fill-rule:evenodd; clip-rule:evenodd" version="1.1" viewBox="0 0 250 250" width="8.0661mm" xml:space="preserve" xmlns="http://www.w3.org/2000/svg" xmlns:xlink="http://www.w3.org/1999/xlink"><defs><style type="text/css">
   <![CDATA[
    .fil0 {fill:black}
   ]]>
  </style></defs><g id="Layer_x0020_1"><path class="fil0" d="M245 160l0 -1 0 1c1,-3 2,-6 2,-9 15,-67 -28,-134 -96,-148 -8,-2 -16,-3 -25,-3l0 25c7,0 13,1 20,2 27,6 49,22 63,44 4,6 8,14 11,21l-39 10 64 58zm-146 87c-68,-14 -111,-81 -96,-148 0,-3 1,-6 2,-9l21 19 0 0 42 38 -37 11c2,8 6,15 10,21 14,22 36,38 63,44 6,1 12,2 18,2l-1 25c-7,0 -15,-1 -22,-3zm-36 -144l39 -39c4,-4 10,-4 13,0l69 69c4,3 4,9 0,13l-39 39c-4,4 -10,4 -13,0l-69 -69c-4,-3 -4,-9 0,-13zm85 34c6,0 11,5 11,11 0,6 -5,10 -11,10 -6,0 -11,-4 -11,-10 0,-6 5,-11 11,-11z"/></g></svg>